<?xml version="1.0" encoding="UTF-8"?>
<svg version="1.1" xmlns="http://www.w3.org/2000/svg" width="262" height="92">
<path d="M0 0 C86.46 0 172.92 0 262 0 C262 30.36 262 60.72 262 92 C175.54 92 89.08 92 0 92 C0 61.64 0 31.28 0 0 Z " fill="#FDFDFE" transform="translate(0,0)"/>
<path d="M0 0 C0 10.66666667 0 21.33333333 0 32 C-10.89 32 -21.78 32 -33 32 C-33.59350628 21.68782838 -33.59350628 21.68782838 -33.49609375 18.3046875 C-33.48505615 17.55429199 -33.47401855 16.80389648 -33.46264648 16.03076172 C-32.85402111 13.35923356 -31.75407278 12.51503436 -29.5625 10.9375 C-28.82128906 10.65390625 -28.08007812 10.3703125 -27.31640625 10.078125 C-24.32224936 8.68455451 -23.04571797 6.75745783 -21 4.1875 C-15.11465394 -2.08189862 -7.93509027 -0.78864087 0 0 Z " fill="#8D2787" transform="translate(64,27)"/>
<path d="M0 0 C0.99 0.33 1.98 0.66 3 1 C2.61328125 1.44730469 2.2265625 1.89460938 1.828125 2.35546875 C-1.18390075 5.8521026 -4.14321031 9.37407463 -7 13 C-6.34 13 -5.68 13 -5 13 C-3.62689293 14.29233607 -2.28965176 15.62437146 -1 17 C2.80635497 13.79239749 6.54563567 10.59253891 10 7 C12 8 12 8 13 9 C13 13.29 13 17.58 13 22 C2.11 22 -8.78 22 -20 22 C-20 16.06 -20 10.12 -20 4 C-18.35 3.34 -16.7 2.68 -15 2 C-14.5875 2.804375 -14.175 3.60875 -13.75 4.4375 C-12.27103396 7.05462359 -12.27103396 7.05462359 -10.15625 7.90625 C-7.83448194 8.23937554 -7.83448194 8.23937554 -5.859375 6.34765625 C-5.16328125 5.59355469 -4.4671875 4.83945312 -3.75 4.0625 C-3.04359375 3.31097656 -2.3371875 2.55945312 -1.609375 1.78515625 C-0.81273437 0.90150391 -0.81273437 0.90150391 0 0 Z " fill="#F3DFED" transform="translate(51,37)"/>
<path d="M0 0 C3.62760073 1.64890942 6.08652985 3.47518657 8 7 C8 8.98 8 10.96 8 13 C1.73 13 -4.54 13 -11 13 C-9.45957252 17.80304035 -9.45957252 17.80304035 -7 20 C-2.05423265 20.32431261 1.49016424 20.25491788 6 18 C5.06896676 20.32758311 4.34617872 21.74357132 2.3125 23.25 C-1.03928897 24.33706669 -3.49062916 24.42354476 -7 24 C-10.76799537 21.84563362 -13.39338938 19.03904913 -15 15 C-15.41725045 10.97389919 -15.01725055 7.4069578 -12.61328125 4.08203125 C-8.63186198 0.31534021 -5.57754583 -0.92959097 0 0 Z " fill="#472582" transform="translate(141,36)"/>
<path d="M0 0 C6.93 0 13.86 0 21 0 C21 0.99 21 1.98 21 3 C15.06 3 9.12 3 3 3 C3 6.63 3 10.26 3 14 C8.28 14 13.56 14 19 14 C19 14.99 19 15.98 19 17 C13.72 17 8.44 17 3 17 C3 20.96 3 24.92 3 29 C8.94 29 14.88 29 21 29 C21 29.66 21 30.32 21 31 C14.07 31 7.14 31 0 31 C0 20.77 0 10.54 0 0 Z " fill="#593B8D" transform="translate(80,28)"/>
<path d="M0 0 C0.99 0 1.98 0 3 0 C3.33 0.99 3.66 1.98 4 3 C4.845625 2.484375 5.69125 1.96875 6.5625 1.4375 C10.66911366 -0.27981117 12.74592801 -0.20398264 17 1 C19.14989807 2.83781609 19.92155384 4.29529065 20.23461914 7.10766602 C20.2957176 9.66178616 20.2610566 12.1962656 20.1875 14.75 C20.16719727 16.08224609 20.16719727 16.08224609 20.14648438 17.44140625 C20.11121309 19.62822578 20.06192752 21.81379966 20 24 C19.01 24 18.02 24 17 24 C16.95101562 22.80761719 16.90203125 21.61523438 16.8515625 20.38671875 C16.77652396 18.82028932 16.7009766 17.25388421 16.625 15.6875 C16.5940625 14.90181641 16.563125 14.11613281 16.53125 13.30664062 C16.49257812 12.54931641 16.45390625 11.79199219 16.4140625 11.01171875 C16.36693115 9.96697388 16.36693115 9.96697388 16.31884766 8.90112305 C16.07881747 6.67467261 16.07881747 6.67467261 14 4 C10.52486835 3.47117562 8.74033689 3.4683035 5.8515625 5.54296875 C3.3802347 8.82243116 3.33232599 11.79086817 3.25 15.75 C3.22035156 16.44738281 3.19070312 17.14476563 3.16015625 17.86328125 C3.08981542 19.57490813 3.04260054 21.28745815 3 23 C2.01 23 1.02 23 0 23 C0 15.41 0 7.82 0 0 Z " fill="#634495" transform="translate(153,36)"/>
<path d="M0 0 C0.99 0 1.98 0 3 0 C0.77111722 6.94465406 -1.79911604 13.68907293 -4.5625 20.4375 C-5.16094727 21.92540039 -5.16094727 21.92540039 -5.77148438 23.44335938 C-6.15755859 24.38888672 -6.54363281 25.33441406 -6.94140625 26.30859375 C-7.46263062 27.58947876 -7.46263062 27.58947876 -7.99438477 28.89624023 C-9 31 -9 31 -11 33 C-13.625 33.125 -13.625 33.125 -16 33 C-16 32.34 -16 31.68 -16 31 C-15.01 30.67 -14.02 30.34 -13 30 C-10.70352584 25.98117022 -10.98215872 23.4175345 -12 19 C-13.06665272 16.19292675 -14.30239508 13.47482093 -15.5625 10.75 C-19 3.24266145 -19 3.24266145 -19 1 C-18.01 1 -17.02 1 -16 1 C-14.82887054 3.62309099 -13.66294036 6.24828142 -12.5 8.875 C-12.16613281 9.62136719 -11.83226562 10.36773437 -11.48828125 11.13671875 C-11.01455078 12.20986328 -11.01455078 12.20986328 -10.53125 13.3046875 C-10.23798828 13.96452637 -9.94472656 14.62436523 -9.64257812 15.30419922 C-9 17 -9 17 -9 19 C-8.34 19 -7.68 19 -7 19 C-6.8865625 18.31421875 -6.773125 17.6284375 -6.65625 16.921875 C-5.89832017 13.54728264 -4.75402727 10.47255845 -3.5 7.25 C-3.0565625 6.10015625 -2.613125 4.9503125 -2.15625 3.765625 C-1 1 -1 1 0 0 Z " fill="#55368B" transform="translate(235,36)"/>
<path d="M0 0 C6.01826738 4.97161218 11.66337352 10.29829243 17 16 C17 16.33 17 16.66 17 17 C11.39 17 5.78 17 0 17 C0 11.39 0 5.78 0 0 Z " fill="#CD0B81" transform="translate(32,42)"/>
<path d="M0 0 C0.99 0 1.98 0 3 0 C3 2.64 3 5.28 3 8 C4.98 8 6.96 8 9 8 C9 8.99 9 9.98 9 11 C7.02 11 5.04 11 3 11 C3.33 16.61 3.66 22.22 4 28 C5.98 28.33 7.96 28.66 10 29 C10 29.66 10 30.32 10 31 C3.375 32.25 3.375 32.25 0 30 C-0.34057617 28.02880859 -0.34057617 28.02880859 -0.29296875 25.6484375 C-0.28330078 24.79765625 -0.27363281 23.946875 -0.26367188 23.0703125 C-0.23853516 22.18085937 -0.21339844 21.29140625 -0.1875 20.375 C-0.16719727 19.02921875 -0.16719727 19.02921875 -0.14648438 17.65625 C-0.11106925 15.43690211 -0.06168461 13.21874812 0 11 C-0.99 11 -1.98 11 -3 11 C-3 10.01 -3 9.02 -3 8 C-2.01 8 -1.02 8 0 8 C0 5.36 0 2.72 0 0 Z " fill="#614392" transform="translate(179,28)"/>
<path d="M0 0 C1.093125 0.103125 2.18625 0.20625 3.3125 0.3125 C3.6425 1.3025 3.9725 2.2925 4.3125 3.3125 C2.0025 3.6425 -0.3075 3.9725 -2.6875 4.3125 C-3.0175 6.9525 -3.3475 9.5925 -3.6875 12.3125 C-1.7075 12.3125 0.2725 12.3125 2.3125 12.3125 C2.3125 13.3025 2.3125 14.2925 2.3125 15.3125 C0.3325 15.3125 -1.6475 15.3125 -3.6875 15.3125 C-3.6875 20.9225 -3.6875 26.5325 -3.6875 32.3125 C-4.6775 32.3125 -5.6675 32.3125 -6.6875 32.3125 C-6.6875 26.3725 -6.6875 20.4325 -6.6875 14.3125 C-7.6775 14.3125 -8.6675 14.3125 -9.6875 14.3125 C-9.6875 13.6525 -9.6875 12.9925 -9.6875 12.3125 C-8.6975 12.3125 -7.7075 12.3125 -6.6875 12.3125 C-6.749375 11.260625 -6.81125 10.20875 -6.875 9.125 C-6.59764331 3.48541401 -6.01935085 0.51011448 0 0 Z " fill="#593A8E" transform="translate(209.6875,26.6875)"/>
<path d="M0 0 C1.89355469 0.27514648 1.89355469 0.27514648 4 1 C5.28501632 3.71444961 6.30329 6.23444538 7.25 9.0625 C7.518125 9.82111328 7.78625 10.57972656 8.0625 11.36132812 C8.72271967 13.23588042 9.36325109 15.11734572 10 17 C12.16575619 13.75136571 13.62352411 10.39377143 15.125 6.8125 C15.40214844 6.15830078 15.67929688 5.50410156 15.96484375 4.83007812 C16.64597045 3.22120988 17.32335403 1.61075785 18 0 C18.99 0 19.98 0 21 0 C19.34772342 5.21771551 17.56563285 10.38211652 15.625 15.5 C15.05652344 17.03140625 15.05652344 17.03140625 14.4765625 18.59375 C13 21 13 21 10.40771484 21.65039062 C9.61316895 21.76576172 8.81862305 21.88113281 8 22 C6.66108439 18.71057634 5.32982297 15.41810891 4 12.125 C3.6184375 11.18785156 3.236875 10.25070313 2.84375 9.28515625 C2.4828125 8.38925781 2.121875 7.49335937 1.75 6.5703125 C1.41484375 5.74289551 1.0796875 4.91547852 0.734375 4.06298828 C0 2 0 2 0 0 Z " fill="#58388C" transform="translate(104,37)"/>
<path d="M0 0 C2.5625 1.75 2.5625 1.75 4 4 C4 5.32 4 6.64 4 8 C-1.28 8 -6.56 8 -12 8 C-12 3 -12 3 -10.77734375 1.21484375 C-7.48314397 -1.0367961 -3.81761009 -0.62708036 0 0 Z " fill="#F4F2F7" transform="translate(142,39)"/>
<path d="M0 0 C0 3.96 0 7.92 0 12 C-4.29 12 -8.58 12 -13 12 C-2.88235294 0 -2.88235294 0 0 0 Z " fill="#A9348F" transform="translate(64,47)"/>
<path d="M0 0 C0.66 0 1.32 0 2 0 C2 5.94 2 11.88 2 18 C8.27 18 14.54 18 21 18 C21 18.66 21 19.32 21 20 C14.07 20 7.14 20 0 20 C0 13.4 0 6.8 0 0 Z " fill="#E354A8" transform="translate(27,43)"/>
<path d="M0 0 C6.93 0 13.86 0 21 0 C21 6.6 21 13.2 21 20 C20.34 20 19.68 20 19 20 C19 14.06 19 8.12 19 2 C12.73 2 6.46 2 0 2 C0 1.34 0 0.68 0 0 Z " fill="#8363A4" transform="translate(47,23)"/>
<path d="M0 0 C3.70459511 1.68390687 5.77952709 3.61085714 8 7 C7.34 8.32 6.68 9.64 6 11 C5.731875 10.401875 5.46375 9.80375 5.1875 9.1875 C3.96133118 6.92876797 2.99322484 5.61096255 1 4 C-1.21122319 3.56414738 -1.21122319 3.56414738 -3.5625 3.6875 C-4.34753906 3.69136719 -5.13257813 3.69523437 -5.94140625 3.69921875 C-8.22126834 3.82296977 -8.22126834 3.82296977 -10 6 C-10.64767793 8.57061311 -10.64767793 8.57061311 -11 11 C-11.99 10.01 -12.98 9.02 -14 8 C-11.38901506 1.35385651 -6.94858637 -0.8685733 0 0 Z " fill="#654896" transform="translate(141,36)"/>
<path d="M0 0 C0.99 0 1.98 0 3 0 C4.41722796 7.7160189 3.65647386 15.24350887 3 23 C2.01 23 1.02 23 0 23 C0 15.41 0 7.82 0 0 Z " fill="#4E2C86" transform="translate(153,36)"/>
<path d="M0 0 C0.99 0 1.98 0 3 0 C3 7.59 3 15.18 3 23 C2.01 23 1.02 23 0 23 C0 15.41 0 7.82 0 0 Z " fill="#502E88" transform="translate(193,36)"/>
<path d="M0 0 C3.63 0 7.26 0 11 0 C7.56530675 4.15358254 4.36729534 7.78875342 0 11 C0 7.37 0 3.74 0 0 Z " fill="#A01981" transform="translate(32,28)"/>
<path d="M0 0 C0.33 0 0.66 0 1 0 C1 3.96 1 7.92 1 12 C6.94 12 12.88 12 19 12 C19 12.66 19 13.32 19 14 C12.4 14 5.8 14 -1 14 C-1.125 3.375 -1.125 3.375 0 0 Z " fill="#4A2683" transform="translate(82,45)"/>
<path d="M0 0 C0.268125 0.598125 0.53625 1.19625 0.8125 1.8125 C2.42364755 4.84068566 2.42364755 4.84068566 5 7 C9.96161052 7.40012988 13.47806839 7.2609658 18 5 C17.06896676 7.32758311 16.34617872 8.74357132 14.3125 10.25 C10.44467602 11.5044294 6.92585833 11.96292916 3.1796875 10.08984375 C1.5 8.875 1.5 8.875 -1 6 C-0.875 2.6875 -0.875 2.6875 0 0 Z " fill="#614392" transform="translate(129,49)"/>
<path d="M0 0 C0.99 0 1.98 0 3 0 C1.06375702 6.20477864 -1.25609141 12.10825719 -4 18 C-4.99 18 -5.98 18 -7 18 C-5.06375702 11.79522136 -2.74390859 5.89174281 0 0 Z " fill="#5F4291" transform="translate(235,36)"/>
<path d="M0 0 C0.99 0 1.98 0 3 0 C1.13236819 5.72210596 -0.85289032 11.37661751 -3 17 C-3.99 16.67 -4.98 16.34 -6 16 C-4.25192871 10.53262809 -2.34205919 5.24175152 0 0 Z " fill="#654996" transform="translate(122,37)"/>
<path d="M0 0 C0.0825 0.61875 0.165 1.2375 0.25 1.875 C0.81258459 4.18437567 0.81258459 4.18437567 3.0625 5.25 C3.701875 5.4975 4.34125 5.745 5 6 C3.68 6 2.36 6 1 6 C1 7.65 1 9.3 1 11 C-0.5 9.875 -0.5 9.875 -2 8 C-2.3125 4.9375 -2.3125 4.9375 -2 2 C-1.34 1.34 -0.68 0.68 0 0 Z " fill="#533189" transform="translate(128,43)"/>
<path d="M0 0 C0.99 0 1.98 0 3 0 C2.1875 3.4375 2.1875 3.4375 1 7 C0.01 7.33 -0.98 7.66 -2 8 C-1.125 2.25 -1.125 2.25 0 0 Z " fill="#5A3B8F" transform="translate(122,37)"/>
<path d="M0 0 C2 3 2 3 2.5 5.125 C2.665 5.74375 2.83 6.3625 3 7 C3.66 7.33 4.32 7.66 5 8 C4.01 8 3.02 8 2 8 C1.67 8.66 1.34 9.32 1 10 C-0.83691257 6.21812119 -1.15837626 4.05431692 0 0 Z " fill="#634594" transform="translate(223,48)"/>
<path d="M0 0 C1.36125 0.37125 1.36125 0.37125 2.75 0.75 C2.75 1.08 2.75 1.41 2.75 1.75 C1.3578125 2.183125 1.3578125 2.183125 -0.0625 2.625 C-3.34791667 3.6375 -3.34791667 3.6375 -6.25 5.75 C-6.58 5.09 -6.91 4.43 -7.25 3.75 C-4.05 -0.31153846 -4.05 -0.31153846 0 0 Z " fill="#644796" transform="translate(163.25,37.25)"/>
<path d="M0 0 C0.99 0.33 1.98 0.66 3 1 C2.34 1.66 1.68 2.32 1 3 C0.35232207 5.57061311 0.35232207 5.57061311 0 8 C-0.99 7.01 -1.98 6.02 -3 5 C-1.125 1.125 -1.125 1.125 0 0 Z " fill="#5F4092" transform="translate(130,39)"/>
<path d="M0 0 C0.99 0 1.98 0 3 0 C2.34 1.98 1.68 3.96 1 6 C0.01 5.67 -0.98 5.34 -2 5 C-1.34 3.35 -0.68 1.7 0 0 Z " fill="#7961A3" transform="translate(235,36)"/>
</svg>
